<mxfile host="app.diagrams.net" agent="Mozilla/5.0 (Windows NT 10.0; Win64; x64) AppleWebKit/537.36 (KHTML, like Gecko) Chrome/136.0.0.0 Safari/537.36 Edg/136.0.0.0" version="27.1.1">
  <diagram name="Страница — 1" id="aU0TRO6yYORLALOwXprF">
    <mxGraphModel dx="797" dy="391" grid="1" gridSize="10" guides="1" tooltips="1" connect="1" arrows="1" fold="1" page="1" pageScale="1" pageWidth="827" pageHeight="1169" math="0" shadow="0">
      <root>
        <mxCell id="0" />
        <mxCell id="1" parent="0" />
        <mxCell id="TlGjgbGEaKsuICFMY0Ik-1" value="Картина" style="html=1;whiteSpace=wrap;" parent="1" vertex="1">
          <mxGeometry x="380" y="10" width="110" height="50" as="geometry" />
        </mxCell>
        <mxCell id="TlGjgbGEaKsuICFMY0Ik-2" value="Пользователь" style="html=1;whiteSpace=wrap;" parent="1" vertex="1">
          <mxGeometry x="140" y="120" width="110" height="50" as="geometry" />
        </mxCell>
        <mxCell id="TlGjgbGEaKsuICFMY0Ik-3" value="Избранное" style="html=1;whiteSpace=wrap;" parent="1" vertex="1">
          <mxGeometry x="375" y="170" width="110" height="50" as="geometry" />
        </mxCell>
        <mxCell id="TlGjgbGEaKsuICFMY0Ik-4" value="Система аукциона" style="html=1;whiteSpace=wrap;" parent="1" vertex="1">
          <mxGeometry x="180" y="280" width="110" height="50" as="geometry" />
        </mxCell>
        <mxCell id="TlGjgbGEaKsuICFMY0Ik-8" value="1" style="text;html=1;align=center;verticalAlign=middle;whiteSpace=wrap;rounded=0;" parent="1" vertex="1">
          <mxGeometry x="255" y="70" width="60" height="30" as="geometry" />
        </mxCell>
        <mxCell id="TlGjgbGEaKsuICFMY0Ik-11" value="Добавить в избранное" style="text;html=1;align=center;verticalAlign=middle;whiteSpace=wrap;rounded=0;" parent="1" vertex="1">
          <mxGeometry x="250" y="140" width="130" height="30" as="geometry" />
        </mxCell>
        <mxCell id="TlGjgbGEaKsuICFMY0Ik-14" value="Получение запроса на добавление картины" style="text;html=1;align=center;verticalAlign=middle;whiteSpace=wrap;rounded=0;" parent="1" vertex="1">
          <mxGeometry x="230" y="220" width="250" height="30" as="geometry" />
        </mxCell>
        <mxCell id="TlGjgbGEaKsuICFMY0Ik-16" value="" style="endArrow=classic;html=1;rounded=0;entryX=1;entryY=0;entryDx=0;entryDy=0;exitX=0;exitY=1;exitDx=0;exitDy=0;" parent="1" source="TlGjgbGEaKsuICFMY0Ik-3" target="TlGjgbGEaKsuICFMY0Ik-4" edge="1">
          <mxGeometry width="50" height="50" relative="1" as="geometry">
            <mxPoint x="340" y="200" as="sourcePoint" />
            <mxPoint x="439" y="290" as="targetPoint" />
          </mxGeometry>
        </mxCell>
        <mxCell id="TlGjgbGEaKsuICFMY0Ik-17" value="" style="endArrow=classic;html=1;rounded=0;entryX=0;entryY=0;entryDx=0;entryDy=0;exitX=1;exitY=1;exitDx=0;exitDy=0;" parent="1" source="TlGjgbGEaKsuICFMY0Ik-2" target="TlGjgbGEaKsuICFMY0Ik-3" edge="1">
          <mxGeometry width="50" height="50" relative="1" as="geometry">
            <mxPoint x="405" y="260" as="sourcePoint" />
            <mxPoint x="320" y="320" as="targetPoint" />
          </mxGeometry>
        </mxCell>
        <mxCell id="TlGjgbGEaKsuICFMY0Ik-19" value="" style="endArrow=classic;html=1;rounded=0;exitX=1;exitY=0;exitDx=0;exitDy=0;entryX=0;entryY=1;entryDx=0;entryDy=0;" parent="1" source="TlGjgbGEaKsuICFMY0Ik-2" target="TlGjgbGEaKsuICFMY0Ik-1" edge="1">
          <mxGeometry width="50" height="50" relative="1" as="geometry">
            <mxPoint x="290" y="180" as="sourcePoint" />
            <mxPoint x="340" y="20" as="targetPoint" />
          </mxGeometry>
        </mxCell>
        <mxCell id="TlGjgbGEaKsuICFMY0Ik-20" value="" style="endArrow=classic;html=1;rounded=0;" parent="1" edge="1">
          <mxGeometry width="50" height="50" relative="1" as="geometry">
            <mxPoint x="310" y="290" as="sourcePoint" />
            <mxPoint x="340" y="270" as="targetPoint" />
          </mxGeometry>
        </mxCell>
        <mxCell id="TlGjgbGEaKsuICFMY0Ik-21" value="Отправка в избранное" style="text;html=1;align=center;verticalAlign=middle;whiteSpace=wrap;rounded=0;" parent="1" vertex="1">
          <mxGeometry x="315" y="290" width="90" height="30" as="geometry" />
        </mxCell>
        <mxCell id="FWfITArPFt8gfL2IMXE1-1" value="" style="endArrow=classic;html=1;rounded=0;" edge="1" parent="1">
          <mxGeometry width="50" height="50" relative="1" as="geometry">
            <mxPoint x="390" y="140" as="sourcePoint" />
            <mxPoint x="340" y="140" as="targetPoint" />
          </mxGeometry>
        </mxCell>
        <mxCell id="FWfITArPFt8gfL2IMXE1-2" value="вернуть информацию о добавлении" style="text;html=1;align=center;verticalAlign=middle;whiteSpace=wrap;rounded=0;" vertex="1" parent="1">
          <mxGeometry x="280" y="110" width="220" height="30" as="geometry" />
        </mxCell>
        <mxCell id="FWfITArPFt8gfL2IMXE1-6" value="2" style="text;html=1;align=center;verticalAlign=middle;whiteSpace=wrap;rounded=0;" vertex="1" parent="1">
          <mxGeometry x="255" y="170" width="60" height="30" as="geometry" />
        </mxCell>
        <mxCell id="FWfITArPFt8gfL2IMXE1-7" value="3" style="text;html=1;align=center;verticalAlign=middle;whiteSpace=wrap;rounded=0;" vertex="1" parent="1">
          <mxGeometry x="315" y="200" width="60" height="30" as="geometry" />
        </mxCell>
        <mxCell id="FWfITArPFt8gfL2IMXE1-8" value="4" style="text;html=1;align=center;verticalAlign=middle;whiteSpace=wrap;rounded=0;" vertex="1" parent="1">
          <mxGeometry x="285" y="300" width="60" height="30" as="geometry" />
        </mxCell>
        <mxCell id="FWfITArPFt8gfL2IMXE1-9" value="5" style="text;html=1;align=center;verticalAlign=middle;whiteSpace=wrap;rounded=0;" vertex="1" parent="1">
          <mxGeometry x="375" y="130" width="60" height="30" as="geometry" />
        </mxCell>
      </root>
    </mxGraphModel>
  </diagram>
</mxfile>
